<?xml version="1.0" encoding="utf-8"?>
<!-- Generator: Adobe Illustrator 16.0.0, SVG Export Plug-In . SVG Version: 6.00 Build 0)  -->
<!DOCTYPE svg PUBLIC "-//W3C//DTD SVG 1.1//EN" "http://www.w3.org/Graphics/SVG/1.1/DTD/svg11.dtd">
<svg version="1.1" id="圖層_1" xmlns="http://www.w3.org/2000/svg" xmlns:xlink="http://www.w3.org/1999/xlink" x="0px" y="0px"
	 width="108.914px" height="108.971px" viewBox="0 0 108.914 108.971" enable-background="new 0 0 108.914 108.971"
	 xml:space="preserve">
<g>
	<path fill-rule="evenodd" clip-rule="evenodd" fill="#FFFFFF" d="M27.896,7.781h51.917c0,0,16.441,1.665,21.555,20.262
		c5.113,18.596,0,57.371,0,57.371s-7.051,13.364-19.054,15.45c-12.004,2.086-57.655-0.04-57.655-0.04S11.14,97.31,9.14,84.794
		V20.131C9.14,20.131,14.454,9.781,27.896,7.781z"/>
	<path fill-rule="evenodd" clip-rule="evenodd" d="M2.513,56.46c0-5.505-0.084-10.987,0.016-16.481
		c0.085-4.887,0.085-9.817,1.164-14.621C5.987,15.199,11.825,8.164,21.759,4.69c3.593-1.244,7.286-1.871,11.03-1.925
		c11.286-0.17,22.587-0.256,33.854-0.286C70.373,2.469,74.1,2.564,77.792,2.83c6.664,0.477,12.906,2.212,18.15,6.588
		c5.347,4.432,8.315,10.168,9.563,16.896c0.761,4.037,0.896,8.074,0.929,12.146c0.052,10.115,0.15,20.274,0.067,30.391
		c-0.034,4.962-0.067,9.925-1.181,14.833c-2.294,10.064-8.079,17.119-17.998,20.627c-4.756,1.656-9.749,2.026-14.741,2.063
		c-10.711,0.061-21.424,0.168-32.15,0.093c-4.941-0.032-9.919-0.063-14.81-1.106C14.893,102.98,7.708,96.777,4.369,86.225
		c-1.012-3.252-1.483-6.622-1.553-10.01C2.614,69.637,2.513,63.039,2.378,56.46C2.429,56.46,2.461,56.46,2.513,56.46z
		 M54.633,11.916L54.633,11.916c-4.368,0-8.736-0.055-13.139,0c-4.403,0.064-8.805,0.125-13.174,0.817
		c-8.012,1.253-13.612,6.513-15.332,14.409c-0.878,3.964-0.979,7.98-0.996,12.007C11.91,49.914,11.91,60.711,12.06,71.454
		c0.051,3.506,0.37,7.035,0.995,10.478c0.894,4.951,3.576,8.916,7.861,11.613c3.507,2.23,7.472,3.027,11.554,3.188
		c5.954,0.225,11.943,0.34,17.896,0.395c5.702,0.053,11.404,0.021,17.088-0.031c4.521-0.087,9.041-0.108,13.512-0.895
		c5.379-0.967,9.782-3.475,12.685-8.183c2.192-3.56,2.951-7.544,3.138-11.646c0.219-5.676,0.354-11.359,0.37-17.066
		c0.019-7.213-0.017-14.449-0.151-21.688c-0.034-3.527-0.136-7.064-0.943-10.54c-1.773-7.663-6.528-12.423-14.204-14.145
		c-3.965-0.894-7.962-0.903-11.96-0.989C64.823,11.83,59.746,11.916,54.633,11.916z"/>
	<path fill-rule="evenodd" clip-rule="evenodd" d="M81.268,54.505C81.371,69.158,69.257,81.4,54.196,81.239
		c-14.473-0.17-26.567-12.05-26.416-27.16c0.137-14.376,12.112-26.298,26.518-26.352C69.342,27.663,81.371,39.925,81.268,54.505z
		 M54.583,37.173c-9.698-0.009-17.356,7.779-17.374,17.649c-0.016,9.002,7.929,16.918,16.901,17.004
		c9.851,0.094,17.645-7.717,17.729-17.141C71.873,44.984,64.148,37.194,54.583,37.173z"/>
	<path fill-rule="evenodd" clip-rule="evenodd" d="M82.315,32.977c-3.476,0.021-6.241-2.752-6.275-6.207
		c-0.033-3.506,2.768-6.313,6.258-6.322c3.491-0.02,6.291,2.795,6.291,6.303C88.588,30.159,85.789,32.967,82.315,32.977z"/>
</g>
</svg>
