<?xml version="1.0" encoding="utf-8"?>
<!-- Generator: Adobe Illustrator 16.0.0, SVG Export Plug-In . SVG Version: 6.00 Build 0)  -->
<!DOCTYPE svg PUBLIC "-//W3C//DTD SVG 1.1//EN" "http://www.w3.org/Graphics/SVG/1.1/DTD/svg11.dtd">
<svg version="1.1" id="圖層_1" xmlns="http://www.w3.org/2000/svg" xmlns:xlink="http://www.w3.org/1999/xlink" x="0px" y="0px"
	 width="108.913px" height="108.971px" viewBox="0 0 108.913 108.971" enable-background="new 0 0 108.913 108.971"
	 xml:space="preserve">
<g>
	<polygon fill="#FFFFFF" points="15.14,2.179 105.101,54.485 15.14,106.477 	"/>
	<g>
		<path d="M15.885,108.971c-0.317,0-0.632-0.078-0.916-0.244c-0.568-0.326-0.912-0.93-0.912-1.578V1.828
			c0-0.65,0.344-1.256,0.912-1.58c0.565-0.33,1.259-0.33,1.825,0l91.207,52.654c0.566,0.324,0.912,0.932,0.912,1.58
			c0,0.65-0.346,1.26-0.912,1.586l-91.207,52.658C16.51,108.893,16.194,108.971,15.885,108.971z M17.706,4.996v98.982l85.731-49.496
			L17.706,4.996z"/>
	</g>
	<g>
		<path d="M48.414,47.949c-0.162,0.266-0.311-4.527-0.864-11.002c0,0,0.554-1.641,2.108-1.324c0,0,1.163,0.469,1.324,2.107
			C50.982,37.73,51.373,42.955,48.414,47.949z"/>
	</g>
	<g>
		<path d="M35.384,59.652c0,0-3.899,0.701-6.938,0.541c0,0-1.403,0.084-1.886,0.859c0,0,0.083,1.719,1.803,2.268
			c0,0,4.448,1.252,7.727-2.5C36.09,60.82,36.693,59.447,35.384,59.652z"/>
	</g>
	<g>
		<path d="M58.006,47.961c0,0-1.322,5.762-2.573,9.506c0,0-1.008,4.111-2.776,6.055c0,0-4.09,4.479-8.775,7.213
			c0,0,7.972-1.721,12.487-4.061c0,0,2.654-1.246,2.654-8.74c0,0,0.315-4.361-0.314-10.688C58.708,47.246,58.211,47.1,58.006,47.961
			z"/>
	</g>
</g>
</svg>
