<?xml version="1.0" encoding="utf-8"?>
<!-- Generator: Adobe Illustrator 16.0.0, SVG Export Plug-In . SVG Version: 6.00 Build 0)  -->
<!DOCTYPE svg PUBLIC "-//W3C//DTD SVG 1.1//EN" "http://www.w3.org/Graphics/SVG/1.1/DTD/svg11.dtd">
<svg version="1.1" id="圖層_1" xmlns="http://www.w3.org/2000/svg" xmlns:xlink="http://www.w3.org/1999/xlink" x="0px" y="0px"
	 width="108.97px" height="109.025px" viewBox="0 0 108.97 109.025" enable-background="new 0 0 108.97 109.025"
	 xml:space="preserve">
<g>
	<g>
		<path fill="#231815" d="M49.485,90.416C21.978,88.336,0.457,69.5,0.457,46.549c0-24.318,24.199-44.043,54.013-44.043
			c29.874,0,54.042,19.709,54.042,44.041c0,0-0.115,13.648-7.823,22.35c0,0-11.018,16.699-48.784,37.4c0,0-3.953,1.688-2.607-4.238
			c0,0,1.548-3.547,2.063-9.316c0,0,0.144-1.541-1.404-2.273L49.485,90.416z"/>
	</g>
	<g>
		<path fill="#FFFFFF" d="M29.627,62.146H16.519c-1.648,0-2.982-1.328-2.982-3.008V33.016c0-1.627,1.333-3.006,2.982-3.006
			c1.618,0,2.938,1.379,2.938,3.006v23.168h10.171c1.576,0,3.009,1.309,3.009,2.955C32.636,60.818,31.204,62.146,29.627,62.146z"/>
	</g>
	<g>
		<path fill="#FFFFFF" d="M38.755,62.146c-1.591,0-2.952-1.328-2.952-3.008V33.016c0-1.627,1.36-3.006,2.952-3.006
			c1.631,0,2.951,1.379,2.951,3.006v26.123C41.706,60.818,40.386,62.146,38.755,62.146z"/>
	</g>
	<g>
		<path fill="#FFFFFF" d="M68.971,62.146c-0.96,0-1.835-0.451-2.407-1.234L53.083,42.234v16.904c0,1.68-1.32,3.008-2.952,3.008
			c-1.663,0-3.022-1.328-3.022-3.008V33.016c0-1.281,0.845-2.43,2.061-2.814c1.218-0.436,2.594,0.041,3.324,1.078l13.483,18.623
			l-0.073-16.887c0-1.627,1.318-3.006,2.995-3.006l0,0c1.633,0,2.951,1.379,2.951,3.006l0.072,26.123
			c0,1.313-0.818,2.459-2.05,2.867C69.587,62.098,69.269,62.146,68.971,62.146z"/>
	</g>
	<path fill="#FFFFFF" d="M93.168,49.105c1.634,0,2.952-1.361,2.952-3.006c0-1.662-1.317-3.018-2.952-3.018H82.867v-7.051h10.301
		c1.634,0,2.952-1.373,2.952-3.016c0-1.627-1.317-3.006-2.952-3.006H79.915c-1.647,0-2.994,1.379-2.994,3.006v26.123
		c0,1.68,1.346,3.008,2.994,3.008h13.253c1.634,0,2.952-1.328,2.952-3.008c0-1.646-1.317-2.955-2.952-2.955H82.867v-7.078H93.168z"
		/>
</g>
</svg>
