<?xml version="1.0" encoding="utf-8"?>
<!-- Generator: Adobe Illustrator 16.0.0, SVG Export Plug-In . SVG Version: 6.00 Build 0)  -->
<!DOCTYPE svg PUBLIC "-//W3C//DTD SVG 1.1//EN" "http://www.w3.org/Graphics/SVG/1.1/DTD/svg11.dtd">
<svg version="1.1" id="圖層_1" xmlns="http://www.w3.org/2000/svg" xmlns:xlink="http://www.w3.org/1999/xlink" x="0px" y="0px"
	 width="108.97px" height="109.026px" viewBox="0 0 108.97 109.026" enable-background="new 0 0 108.97 109.026"
	 xml:space="preserve">
<path fill="#231815" d="M22.119,6.028c0,0,7.498-2.487,9.797,2.742l6.896,17.903c0,0,2.369,4.939-0.6,7.309l-6.699,3.962
	c0,0-1.896,1.03-2.029,2.802c0,0-0.336,1.775-0.067,4.438c0,0,3.364,9.964,14.597,20.729c0,0,7.729,8.352,19.462,13.472
	c0,0,2.396,0.218,4.731,0c0,0,1.898-0.2,2.935-2.75c0,0,1.429-2.993,3.265-5.537c0,0,1.763-3.387,7.365-1.345l16.495,6.305
	c0,0,7.033,1.701,4.771,9.306c0,0-1.703,10.041-10.437,14.867c0,0-7.431,5.198-18.328,2.66c0,0-5.398-1.109-11.466-4.093
	c0,0-28.092-13.605-50.354-48.187c0,0-10.232-15.436-5.897-30.053C6.556,20.559,9.453,10.073,22.119,6.028z"/>
</svg>
