<?xml version="1.0" encoding="utf-8"?>
<!-- Generator: Adobe Illustrator 16.0.0, SVG Export Plug-In . SVG Version: 6.00 Build 0)  -->
<!DOCTYPE svg PUBLIC "-//W3C//DTD SVG 1.1//EN" "http://www.w3.org/Graphics/SVG/1.1/DTD/svg11.dtd">
<svg version="1.1" id="圖層_1" xmlns="http://www.w3.org/2000/svg" xmlns:xlink="http://www.w3.org/1999/xlink" x="0px" y="0px"
	 width="30.439px" height="30.439px" viewBox="0 0 30.439 30.439" enable-background="new 0 0 30.439 30.439" xml:space="preserve">
<g>
	<g>
		<path fill="#FFFFFF" d="M13.812,25.252c-7.75-0.576-13.813-5.844-13.813-12.258c0-6.797,6.816-12.311,15.217-12.311
			c8.416,0,15.225,5.51,15.225,12.311c0,0-0.031,3.814-2.203,6.248c0,0-3.104,4.666-13.744,10.45c0,0-1.113,0.473-0.734-1.183
			c0,0,0.436-0.992,0.58-2.604c0,0,0.041-0.432-0.395-0.638L13.812,25.252z"/>
	</g>
	<g>
		<path d="M8.216,17.354H4.522c-0.463,0-0.84-0.371-0.84-0.84V9.212c0-0.456,0.377-0.84,0.84-0.84c0.457,0,0.828,0.384,0.828,0.84
			v6.474h2.865c0.445,0,0.848,0.368,0.848,0.828C9.063,16.982,8.661,17.354,8.216,17.354z"/>
	</g>
	<g>
		<path d="M10.788,17.354c-0.449,0-0.832-0.371-0.832-0.84V9.212c0-0.456,0.383-0.84,0.832-0.84c0.459,0,0.83,0.384,0.83,0.84v7.302
			C11.618,16.982,11.247,17.354,10.788,17.354z"/>
	</g>
	<g>
		<path d="M19.3,17.354c-0.27,0-0.516-0.125-0.678-0.344l-3.799-5.223v4.727c0,0.469-0.371,0.84-0.83,0.84
			c-0.469,0-0.852-0.371-0.852-0.84V9.212c0-0.359,0.238-0.679,0.58-0.787c0.344-0.121,0.73,0.013,0.938,0.303l3.797,5.203
			l-0.02-4.719c0-0.456,0.371-0.84,0.844-0.84l0,0c0.461,0,0.832,0.384,0.832,0.84l0.02,7.302c0,0.367-0.23,0.686-0.578,0.799
			C19.474,17.342,19.386,17.354,19.3,17.354z"/>
	</g>
	<path d="M26.118,13.709c0.459,0,0.832-0.38,0.832-0.84c0-0.465-0.373-0.844-0.832-0.844h-2.902v-1.97h2.902
		c0.459,0,0.832-0.384,0.832-0.844c0-0.456-0.373-0.84-0.832-0.84h-3.734c-0.463,0-0.844,0.384-0.844,0.84v7.302
		c0,0.469,0.381,0.84,0.844,0.84h3.734c0.459,0,0.832-0.371,0.832-0.84c0-0.46-0.373-0.828-0.832-0.828h-2.902v-1.977H26.118z"/>
</g>
</svg>
