<?xml version="1.0" encoding="utf-8"?>
<!-- Generator: Adobe Illustrator 16.0.0, SVG Export Plug-In . SVG Version: 6.00 Build 0)  -->
<!DOCTYPE svg PUBLIC "-//W3C//DTD SVG 1.1//EN" "http://www.w3.org/Graphics/SVG/1.1/DTD/svg11.dtd">
<svg version="1.1" id="圖層_1" xmlns="http://www.w3.org/2000/svg" xmlns:xlink="http://www.w3.org/1999/xlink" x="0px" y="0px"
	 width="30.439px" height="30.439px" viewBox="0 0 30.439 30.439" enable-background="new 0 0 30.439 30.439" xml:space="preserve">
<path fill="#FFFFFF" d="M5.376,0.309c0,0,2.277-0.762,2.977,0.846l2.098,5.504c0,0,0.719,1.521-0.18,2.246l-2.037,1.219
	c0,0-0.58,0.32-0.615,0.863c0,0-0.102,0.543-0.023,1.363c0,0,1.027,3.061,4.439,6.375c0,0,2.355,2.564,5.924,4.141
	c0,0,0.721,0.066,1.439,0c0,0,0.574-0.061,0.891-0.844c0,0,0.436-0.918,0.992-1.703c0,0,0.537-1.039,2.24-0.416l5.021,1.943
	c0,0,2.139,0.52,1.447,2.861c0,0-0.516,3.084-3.176,4.568c0,0-2.258,1.6-5.576,0.822c0,0-1.643-0.344-3.49-1.262
	c0,0-8.545-4.184-15.311-14.813c0,0-3.119-4.752-1.799-9.242C0.638,4.781,1.522,1.553,5.376,0.309z"/>
</svg>
