<?xml version="1.0" encoding="utf-8"?>
<!-- Generator: Adobe Illustrator 16.0.0, SVG Export Plug-In . SVG Version: 6.00 Build 0)  -->
<!DOCTYPE svg PUBLIC "-//W3C//DTD SVG 1.1//EN" "http://www.w3.org/Graphics/SVG/1.1/DTD/svg11.dtd">
<svg version="1.1" id="圖層_1" xmlns="http://www.w3.org/2000/svg" xmlns:xlink="http://www.w3.org/1999/xlink" x="0px" y="0px"
	 width="69.868px" height="57.067px" viewBox="0 0 69.868 57.067" enable-background="new 0 0 69.868 57.067" xml:space="preserve">
<g>
	<g>
		<g>
			<path fill="#00FFFF" d="M25.575,4.737c-0.663-0.77-1.499-1.367-2.485-1.774c-1.669-0.69-3.177-0.599-3.241-0.595
				c-0.104,0.006-0.193,0.07-0.232,0.168l-1.312,3.168l-0.964,2.333L0.021,49.916c-0.001,0.002,0,0.005-0.002,0.008
				c-0.014,0.038-0.021,0.08-0.018,0.123l0.627,6.274c0.009,0.1,0.073,0.186,0.166,0.224c0.092,0.037,0.198,0.022,0.274-0.04
				l4.877-4.002c0.034-0.025,0.055-0.06,0.071-0.097c0.003-0.003,0.006-0.005,0.007-0.009l17.319-41.879l0.967-2.331l1.311-3.171
				C25.658,4.923,25.642,4.814,25.575,4.737z M22.958,10.033c-0.43-0.231-1.342-0.7-2.522-1.188
				c-0.852-0.353-1.685-0.649-2.478-0.882l0.771-1.865c0.904,0.101,1.796,0.332,2.656,0.687c1.21,0.501,2.034,1.12,2.348,1.378
				L22.958,10.033z M3.503,50.384c-0.867-0.357-1.821-0.559-2.836-0.612l17.079-41.3c0.796,0.231,1.625,0.519,2.482,0.874
				c1.194,0.492,2.125,0.977,2.522,1.188L5.686,51.799C5.319,51.435,4.611,50.844,3.503,50.384z M5.154,52.041
				c-0.814-0.002-1.595-0.145-2.322-0.445c-0.001-0.001-0.001-0.001-0.001-0.001c-0.893-0.369-1.533-0.891-1.917-1.267
				c0.85,0.073,1.651,0.255,2.382,0.557C4.182,51.251,4.791,51.713,5.154,52.041z M22.884,3.462
				c0.853,0.354,1.582,0.859,2.171,1.504l-1.105,2.676c-0.402-0.315-1.206-0.879-2.359-1.357C20.733,5.929,19.843,5.7,18.94,5.587
				l1.108-2.683C20.47,2.901,21.637,2.947,22.884,3.462z M1.116,55.767l-0.495-4.969c0.426,0.404,1.087,0.919,2.002,1.297
				c0,0,0,0,0.001,0c0.746,0.309,1.538,0.475,2.363,0.494L1.116,55.767z"/>
		</g>
		<g>
			<path fill="#00FFFF" d="M19.522,6.304c-0.138-0.059-0.296,0.008-0.353,0.146l-0.415,1c-0.058,0.139,0.01,0.296,0.147,0.354
				c0.139,0.058,0.295-0.009,0.354-0.146l0.414-1C19.727,6.518,19.662,6.36,19.522,6.304z"/>
		</g>
		<g>
			<path fill="#00FFFF" d="M21.023,6.925c-0.139-0.059-0.297,0.008-0.354,0.146l-0.413,1c-0.058,0.139,0.008,0.297,0.146,0.354
				c0.139,0.056,0.297-0.008,0.354-0.148l0.413-0.998C21.227,7.14,21.162,6.98,21.023,6.925z"/>
		</g>
		<g>
			<path fill="#00FFFF" d="M21.903,9.045c0.14,0.058,0.297-0.009,0.354-0.146l0.413-1c0.059-0.139-0.008-0.296-0.146-0.354
				c-0.139-0.058-0.296,0.008-0.354,0.146l-0.413,1.002C21.7,8.829,21.765,8.987,21.903,9.045z"/>
		</g>
	</g>
	<g>
		<g>
			<path fill="none" d="M7.076,51.172l0.029,0.155c0.002-0.002,0.003-0.004,0.01-0.005l0.021-0.004l0.099-0.081
				c-0.04-0.041-0.11-0.102-0.164-0.152C7.091,51.124,7.034,51.129,7.076,51.172z"/>
		</g>
		<g>
			<path fill="none" d="M7.008,51.027c-0.045-0.041-0.073-0.072-0.126-0.117c-0.043-0.037-0.087-0.073-0.134-0.113
				c-0.051,0.002-0.101-0.002-0.151-0.001C6.826,50.911,6.945,50.981,7.008,51.027z"/>
		</g>
		<g>
			<path fill="none" d="M6.686,50.515c-0.324-0.305-0.87-0.69-1.656-1.004C5.813,49.832,6.369,50.218,6.686,50.515z"/>
		</g>
		<g>
			<path fill="none" d="M6.622,50.67c-0.004,0.011-0.003,0.021-0.004,0.03c0.043,0.032,0.091,0.065,0.13,0.097
				c0.06-0.002,0.118,0.005,0.181,0.001l0.063-0.157l0.097-0.237c-0.082-0.045-0.176-0.095-0.295-0.155l-0.108,0.267L6.622,50.67z"
				/>
		</g>
		<g>
			<path fill="none" d="M19.454,6.352l0.116-0.286c-0.099-0.038-0.181-0.069-0.251-0.096l-0.115,0.278
				c-0.077-0.021-0.156-0.05-0.233-0.071l-0.299-0.086l0.423,0.136C19.173,6.249,19.449,6.359,19.454,6.352z"/>
		</g>
		<g>
			<path fill="none" d="M18.789,5.804c0.147,0.041,0.291,0.086,0.434,0.131C18.864,5.802,18.934,5.845,18.789,5.804z"/>
		</g>
		<g>
			<path fill="none" d="M3.886,50.858c0.006,0.002,0.01,0.006,0.016,0.008c0.995,0.407,2.069,0.562,3.193,0.469l0.004-0.004
				C5.971,51.427,4.885,51.266,3.886,50.858z"/>
		</g>
		<g>
			<polygon fill="none" points="2.387,50.017 2.879,54.825 2.886,54.819 2.39,50.019 			"/>
		</g>
		<g>
			<path fill="none" d="M5.058,49.821c-0.821-0.34-1.769-0.548-2.739-0.599c0.011,0.01,0.018,0.018,0.028,0.027
				c0.979,0.048,1.896,0.241,2.727,0.579C5.067,49.826,5.063,49.823,5.058,49.821z"/>
		</g>
		<g>
			<path fill="none" d="M2.148,49.807c0.048,0.04,0.1,0.081,0.151,0.122l-0.001-0.001C2.247,49.887,2.196,49.846,2.148,49.807z"/>
		</g>
		<g>
			<path fill="none" d="M7.216,50.475c0.101,0.086,0.198,0.17,0.273,0.242C7.497,50.678,7.47,50.623,7.216,50.475z"/>
		</g>
		<g>
			<path fill="none" d="M20.395,3.348l-0.058,0.139c-0.036-0.005-0.073-0.008-0.109-0.013c0.092,0.027,0.202,0.063,0.357,0.116
				l0.078-0.193C20.656,3.415,20.525,3.38,20.395,3.348z"/>
		</g>
		<g>
			<path fill="none" d="M1.753,49.21l-0.004-0.038c-0.303-0.293-0.512-0.524-0.512-0.524S1.411,48.886,1.753,49.21z"/>
		</g>
		<g>
			<path fill="none" d="M1.982,48.894c-0.009-0.048,0.066-0.058,0.077-0.085l0.009-0.023l-0.233-0.051
				C1.873,48.777,1.927,48.835,1.982,48.894z"/>
		</g>
		<g>
			<path fill="#00FFFF" d="M5.154,49.261c0.792,0.324,1.698,0.848,1.64,0.987L24.016,8.213c0.02-0.045-1.007-0.562-2.217-1.058
				c-0.881-0.36-1.549-0.578-2.345-0.804L2.101,48.707C3.267,48.724,4.167,48.856,5.154,49.261z"/>
		</g>
		<g>
			<path fill="#00FFFF" d="M6.574,50.728c-0.375-0.303-0.785-0.605-1.501-0.898c-0.831-0.338-1.747-0.531-2.727-0.579
				c-0.012,0.001-0.023-0.004-0.036-0.003l0.049,0.473l0.028,0.279c-0.032-0.024-0.059-0.047-0.089-0.071L2.3,49.929
				c0.029,0.023,0.054,0.045,0.085,0.069l0.002,0.019c0.001,0.001,0.002,0.002,0.003,0.002l0.496,4.801l4.209-3.484
				c-1.124,0.093-2.198-0.062-3.193-0.469c-0.006-0.002-0.01-0.006-0.016-0.008c0.999,0.407,2.085,0.568,3.213,0.473l0.003-0.002
				c0.003,0,0.003-0.001,0.004-0.002l-0.029-0.155c-0.042-0.043,0.015-0.048-0.006-0.087c-0.021-0.02-0.04-0.037-0.063-0.058
				c-0.063-0.046-0.182-0.116-0.411-0.231c0.051-0.001,0.101,0.003,0.151,0.001c-0.039-0.031-0.087-0.064-0.13-0.097
				C6.617,50.714,6.611,50.727,6.574,50.728z"/>
		</g>
		<g>
			<path fill="#00FFFF" d="M24.505,1.143c-1.282-0.524-2.657-0.637-2.719-0.484l-1.123,2.738L20.585,3.59l-0.137,0.332l-0.781,1.909
				c0.794,0.228,1.466,0.45,2.341,0.812c1.191,0.488,2.238,1.008,2.219,1.055l0.785-1.913L25.087,5.6l0.142-0.347l1.124-2.742
				C25.735,1.852,25.373,1.498,24.505,1.143z M20.742,5.411l-0.51-0.209l0.419-1.025l0.511,0.209L20.742,5.411z M22.278,6.04
				l-0.514-0.21l0.421-1.024l0.512,0.211L22.278,6.04z M23.813,6.67l-0.513-0.21l0.42-1.025l0.512,0.209L23.813,6.67z"/>
		</g>
		<g>
			<path fill="#FFFFFF" d="M27.163,2.4c-0.612-0.76-1.423-1.35-2.434-1.765C23.026-0.062,21.4,0,21.331,0.003l-0.168,0.01
				l-0.066,0.163l-1.253,3.056l-0.076,0.188l-0.979,2.385c0.145,0.041,0.075-0.002,0.434,0.131c-0.143-0.045-0.286-0.09-0.434-0.131
				l-0.117,0.287l0.299,0.086c0.077,0.021,0.156,0.051,0.233,0.071l0.115-0.278c0.07,0.026,0.152,0.058,0.251,0.096l-0.116,0.286
				c0.796,0.226,1.464,0.443,2.345,0.804c1.21,0.496,2.236,1.013,2.217,1.058L6.794,50.248c0.119,0.061,0.213,0.11,0.295,0.155
				l-0.097,0.237l-0.063,0.157c-0.063,0.004-0.121-0.003-0.181-0.001c0.047,0.04,0.091,0.076,0.134,0.113
				c0.053,0.045,0.081,0.076,0.126,0.117c0.022,0.021,0.042,0.038,0.063,0.058c0.054,0.051,0.124,0.111,0.164,0.152l-0.099,0.081
				l-0.021,0.004c-0.007,0.001-0.008,0.003-0.01,0.005c-0.001,0.001-0.001,0.002-0.004,0.002l-0.003,0.002l-0.004,0.004
				l-4.209,3.484l-0.007,0.006l-0.492-4.809l-0.002-0.019c-0.031-0.024-0.056-0.046-0.085-0.069
				c-0.052-0.041-0.104-0.082-0.151-0.122c0.048,0.039,0.099,0.08,0.15,0.121c0.03,0.024,0.057,0.047,0.089,0.071L2.359,49.72
				l-0.049-0.473c0.013-0.001,0.024,0.004,0.036,0.003c-0.011-0.01-0.018-0.018-0.028-0.027c0.971,0.051,1.918,0.259,2.739,0.599
				c0.006,0.002,0.01,0.005,0.016,0.008c0.716,0.293,1.126,0.596,1.501,0.898c0.037-0.001,0.043-0.014,0.044-0.027
				c0.001-0.01,0-0.02,0.004-0.03l0.063-0.155c-0.316-0.297-0.324-0.305,0,0l0.108-0.267c0.059-0.14-0.848-0.663-1.64-0.987
				c-0.987-0.404-1.888-0.537-3.054-0.554L19.454,6.352c-0.005,0.008-0.281-0.103-0.359-0.125l-0.423-0.136L1.237,48.647l0,0
				L1.18,48.79l0.088,0.123c0.016,0.021,0.192,0.256,0.513,0.564c0.089,0.088,0.191,0.179,0.304,0.276l-0.005-0.002
				c-0.113-0.097-0.213-0.188-0.303-0.276l0.665,6.436l5.57-4.599l-0.189-0.222c-0.009-0.012-0.227-0.158-0.309-0.268l0.025-0.063
				c-0.013-0.013-0.035-0.03-0.049-0.043L24.752,8.591l1.169-2.857l1.317-3.217L27.163,2.4z M2.06,48.809
				c-0.011,0.027-0.086,0.037-0.077,0.085c-0.056-0.059-0.109-0.116-0.147-0.159l0.233,0.051L2.06,48.809z M7.216,50.475
				c0.254,0.148,0.281,0.203,0.273,0.242C7.414,50.645,7.316,50.561,7.216,50.475z M25.229,5.253L25.087,5.6l-0.075,0.185
				l-0.785,1.913c0.02-0.047-1.027-0.566-2.219-1.055c-0.875-0.361-1.547-0.584-2.341-0.812l0.781-1.909l0.137-0.332
				c-0.155-0.054-0.266-0.089-0.357-0.116c0.036,0.005,0.073,0.008,0.109,0.013l0.058-0.139c0.131,0.032,0.262,0.067,0.269,0.049
				l1.123-2.738c0.062-0.152,1.437-0.04,2.719,0.484c0.868,0.355,1.23,0.709,1.848,1.368L25.229,5.253z"/>
		</g>
		<g>
			
				<rect x="20.422" y="4.24" transform="matrix(-0.9253 -0.3793 0.3793 -0.9253 38.0293 17.0806)" fill="#FFFFFF" width="0.551" height="1.108"/>
		</g>
		<g>
			
				<rect x="21.953" y="4.87" transform="matrix(-0.9257 -0.3784 0.3784 -0.9257 40.7573 18.8548)" fill="#FFFFFF" width="0.555" height="1.106"/>
		</g>
		<g>
			
				<rect x="23.49" y="5.497" transform="matrix(-0.9254 -0.379 0.379 -0.9254 43.4669 20.6591)" fill="#FFFFFF" width="0.554" height="1.109"/>
		</g>
	</g>
	<g>
		<path fill="#FF00FF" d="M4.142,57.067c-1.164,0-2.292-0.036-3.344-0.087c-0.276-0.013-0.489-0.247-0.476-0.522
			s0.261-0.494,0.523-0.476c5.365,0.255,12.787,0.162,16.238-3.423c-2.142-1.654-2.208-2.991-1.861-3.841
			c0.666-1.63,3.429-2.481,6.432-1.98c1.408,0.248,2.607,0.81,3.666,1.305c2.268,1.062,3.905,1.829,6.399-0.665
			c0.195-0.195,0.512-0.195,0.707,0s0.195,0.512,0,0.707c-2.989,2.988-5.195,1.957-7.53,0.864c-1.051-0.492-2.138-1.001-3.411-1.226
			c-2.671-0.443-4.919,0.351-5.337,1.373c-0.324,0.792,0.391,1.876,1.96,2.976c0.114,0.079,0.19,0.203,0.209,0.342
			c0.019,0.138-0.021,0.277-0.11,0.385C15.298,56.333,9.363,57.067,4.142,57.067z"/>
	</g>
	<g>
		<path fill="#FF00FF" d="M32.072,48.231c-0.112,0-0.225-0.038-0.318-0.115c-0.213-0.176-0.242-0.491-0.066-0.704
			c0.575-0.693,0.792-1.28,0.666-1.795c-0.307-1.241-2.599-2.193-4.815-3.114c-2.563-1.065-5.215-2.167-5.774-4.054
			c-0.26-0.874-0.042-1.828,0.646-2.834c0.856-1.307,2-1.996,3.396-2.04c2.655-0.06,5.488,2.165,7.331,4.041
			c0.049-1.404,0.273-3.11,0.688-4.859c-2.422-1.592-4.417-3.471-5.279-5.129c-1.333-2.476-1.014-5.325,0.904-8.018
			c0.847-1.189,1.93-2.251,3.137-3.131c0.158-1.58,0.92-3.011,2.248-4.13c2.727-2.153,5.867-2.631,8.857-1.354
			c3.483,1.488,6.081,5.181,6.462,9.188c0.086,1.204,0.043,2.444,0.002,3.645c-0.041,1.176-0.083,2.393-0.001,3.533
			c0.001,0.736,0.162,1.511,0.331,2.331c0.213,1.031,0.433,2.098,0.334,3.089c-0.238,1.732-1.23,3.146-2.87,4.107
			c-2.877,1.688-6.861,1.599-9.31,0.642c-0.257-0.101-0.384-0.391-0.284-0.648c0.101-0.257,0.392-0.383,0.648-0.283
			c2.171,0.849,5.866,0.938,8.44-0.572c1.385-0.813,2.187-1.944,2.383-3.363c0.082-0.821-0.123-1.811-0.321-2.769
			c-0.172-0.833-0.35-1.694-0.35-2.497c-0.084-1.158-0.042-2.401,0-3.604c0.041-1.174,0.083-2.388,0.001-3.527
			c-0.347-3.642-2.702-7.002-5.859-8.351c-2.636-1.128-5.419-0.699-7.832,1.208c-0.969,0.817-1.488,1.72-1.73,2.596
			c2.434-1.458,5.195-2.19,7.5-1.815c4.471,0.695,6.954,4.424,6.689,7.479c-0.11,1.267-0.709,2.571-1.976,3.481
			c1.139,1.198,2.063,2.76,2.555,4.317c0.943,2.982,0.216,5.471-1.943,6.654c-2.896,1.446-7.81-0.087-11.842-2.516
			c-0.454,2.044-0.641,4.001-0.583,5.385c0.234,0.273,0.431,0.521,0.585,0.727c2.805,3.739,4.756,4.132,9.617,4.3
			c0.126,0.005,0.246,0.057,0.335,0.146c0.228,0.227,0.314,0.345,0.314,0.688c0,0.101-0.03,0.199-0.087,0.282
			c-1.558,2.278-3.58,3.213-5.695,2.632c-3.303-0.906-5.837-5.139-6.049-8.374c-1.688-1.897-4.725-4.531-7.211-4.531
			c-0.037,0-0.073,0-0.109,0.002c-1.065,0.033-1.915,0.556-2.597,1.597c-0.522,0.764-0.69,1.413-0.519,1.993
			c0.424,1.43,2.852,2.439,5.2,3.415c2.558,1.063,4.974,2.066,5.402,3.797c0.206,0.832-0.085,1.731-0.866,2.674
			C32.358,48.17,32.216,48.231,32.072,48.231z M34.463,40.724c0.784,2.675,2.882,5.207,5.008,5.791
			c1.562,0.429,3.039-0.193,4.292-1.804C39.623,44.55,37.287,44.181,34.463,40.724z M34.976,32.268
			c3.823,2.363,8.545,3.973,11.123,2.683c2.445-1.341,1.832-4.271,1.453-5.468c-0.467-1.479-1.384-2.996-2.484-4.104
			c-0.965,0.451-2.199,0.708-3.755,0.686c-0.963-0.028-1.944-0.277-2.885-0.699C36.806,27.006,35.671,29.642,34.976,32.268z
			 M32.588,17.75c-0.889,0.719-1.685,1.543-2.324,2.44c-1.685,2.365-1.981,4.841-0.834,6.97c0.74,1.423,2.505,3.084,4.668,4.541
			c0.714-2.548,1.838-5.078,3.421-6.805c-2.025-1.184-3.755-3.155-4.538-5.4C32.775,18.905,32.645,18.321,32.588,17.75z
			 M39.268,24.641c0.683,0.255,1.382,0.403,2.069,0.424c1.113,0.033,2.081-0.125,2.891-0.421c-0.867-0.648-1.802-1.018-2.684-0.915
			C40.711,23.823,39.953,24.146,39.268,24.641z M33.556,17.033c-0.007,0.834,0.178,1.583,0.37,2.133
			c0.741,2.125,2.411,3.976,4.333,5.014c0.922-0.786,1.977-1.309,3.174-1.445c1.286-0.139,2.609,0.441,3.777,1.429
			c1.008-0.647,1.612-1.623,1.72-2.866c0.226-2.607-1.946-5.798-5.85-6.405C38.805,14.523,35.954,15.407,33.556,17.033z"/>
	</g>
	<g>
		<path fill="#FF00FF" d="M43.468,44.131c-1.66,0.001-3.221-0.492-4.35-1.826c-0.201-0.296-2.268-4.5-1.324-5.576
			c0.167-0.19,0.551-0.457,1.249-0.112c0.248,0.121,0.35,0.421,0.228,0.669c-0.122,0.247-0.42,0.35-0.669,0.228
			c-0.027-0.013-0.052-0.023-0.072-0.032c-0.106,0.762,0.934,3.545,1.387,4.224c2.345,2.765,7.607,0.987,10.565-0.895
			c2.13-1.522,2.877-3.441,3.629-5.479c-0.205-1.108-0.179-2.352,0.154-3.718c0.775-3.876,4.633-8.592,8.924-9.128
			c3.521-0.151,6.016,2.293,6.159,4.673c0.044,0.741-0.141,1.523-0.649,2.188c1.448,1.727,1.571,4.328,0.26,7.336
			c-1.909,4.361-6.378,5.473-9.805,4.316c-1.929-0.651-3.685-2.061-4.569-4.107c-0.689,1.695-1.608,3.365-3.543,4.748
			C49.277,42.761,46.236,44.131,43.468,44.131z M55.142,35.424c0.559,2.472,2.457,3.994,4.332,4.627
			c2.901,0.98,6.824,0.218,8.569-3.77c1.14-2.615,1.096-4.795-0.069-6.237c-0.677,0.487-1.634,0.836-2.935,0.936
			c-0.287,0.049-0.516-0.185-0.537-0.46s0.185-0.516,0.46-0.536c0.934-0.072,1.699-0.298,2.265-0.651
			c-0.208-0.154-0.435-0.294-0.682-0.419c-2.92-1.485-7.794-0.386-10.114,3.571C55.887,33.418,55.521,34.394,55.142,35.424z
			 M63.536,23.476c-0.087,0-0.175,0.002-0.265,0.006c-3.717,0.466-7.32,4.793-8.031,8.348c-0.101,0.414-0.17,0.813-0.213,1.194
			c0.163-0.352,0.341-0.701,0.541-1.044c2.601-4.438,8.111-5.646,11.431-3.958c0.356,0.182,0.681,0.389,0.972,0.619
			c0.279-0.4,0.411-0.88,0.378-1.423C68.237,25.37,66.292,23.476,63.536,23.476z"/>
	</g>
</g>
</svg>
