<?xml version="1.0" encoding="utf-8"?>
<!-- Generator: Adobe Illustrator 16.0.0, SVG Export Plug-In . SVG Version: 6.00 Build 0)  -->
<!DOCTYPE svg PUBLIC "-//W3C//DTD SVG 1.1//EN" "http://www.w3.org/Graphics/SVG/1.1/DTD/svg11.dtd">
<svg version="1.1" id="圖層_1" xmlns="http://www.w3.org/2000/svg" xmlns:xlink="http://www.w3.org/1999/xlink" x="0px" y="0px"
	 width="63.999px" height="46.729px" viewBox="0 0 63.999 46.729" enable-background="new 0 0 63.999 46.729" xml:space="preserve">
<g>
	<path fill="#FF911E" d="M36.315,12.758c0.199-0.799,0.295-1.382,0.295-1.781c0-0.981-0.704-1.031-0.845-1.031
		c-0.518,0-1.45,0.478-4.739,3.942c-3.45,3.633-6.095,6.306-7.868,7.948c-0.884-0.011-1.968-0.094-3.276-0.25
		c-0.961,0-1.575,0.585-1.672,1.537c-0.053,0.212-0.012,0.419,0.116,0.583c0.226,0.289,0.63,0.323,0.915,0.323
		c0.345,0,0.81-0.056,1.411-0.169c0.167-0.027,0.34-0.053,0.519-0.076c-3.108,2.843-5.428,4.84-6.905,5.945
		c-3.604,2.715-6.468,4.092-8.515,4.092c-1.984,0-2.908-0.904-2.908-2.847c0-1.404,0.58-3.421,1.723-5.994
		c1.139-2.562,2.827-4.752,5.016-6.512c2.159-1.731,4.016-2.609,5.519-2.609c0.626,0,1.061,0.182,1.327,0.554
		c0.302,0.424,0.455,1.007,0.455,1.73c0,0.731-0.226,1.619-0.885,2.648L15,22.603v0.141c0,0.377,0.276,0.731,0.935,0.475
		c0.75-0.386,1.392-1.235,2.073-2.598c0.657-1.316,0.963-2.54,0.963-3.636c0-1.271-0.637-2.785-3.607-2.785
		c-2.159,0-4.622,0.984-7.304,2.927c-2.652,1.924-4.776,4.278-6.305,6.998C0.592,26.193,0,28.192,0,30.065
		c0,3.269,1.823,5.151,5.242,5.438c0.169,0.025,0.34,0.038,0.51,0.038c2.504,0,5.831-1.536,10.175-4.697
		c2.78-2.043,5.58-4.433,8.323-7.105l2.738-0.071c-1.396,2.987-2.103,5.515-2.103,7.522c0,1.253,0.362,2.021,1.153,2.307
		c0.546,0.108,1.39,0.184,2.514-0.352c0.667-0.313,1.079-0.737,1.223-1.258l0.018-0.134c0-0.431-0.307-0.656-0.609-0.656
		c-0.223,0-0.435,0.121-0.94,0.536c-0.372,0.301-0.529,0.31-0.545,0.31c-0.111,0-0.406,0-0.406-0.938
		c0-1.261,0.917-3.71,2.725-7.282c4.533-0.325,4.749-0.639,4.749-1.2c0-0.654-0.827-0.618-1.637-0.655l-2.172,0.046
		c0.471-0.888,0.998-1.926,1.57-3.098c0.75-1.533,1.335-2.593,1.736-3.148c0.378-0.519,0.791-0.938,1.232-1.25
		C35.833,14.173,36.086,13.662,36.315,12.758z M25.869,22l4.291-4.123c-1.134,1.845-1.934,3.252-2.388,4.105
		C27.266,21.979,26.831,22,26.45,22H25.869z"/>
	<path fill="#FF911E" d="M48.804,23.436c2.239,0,4.418-0.523,6.477-1.555c2.093-1.047,3.538-2.389,4.29-3.979
		c0.366-0.734,0.551-1.526,0.551-2.353c0-1.382-0.475-2.558-1.412-3.496c-0.289-0.289-0.6-0.537-0.931-0.744
		c0.717-0.13,1.409-0.311,2.072-0.543c1.977-0.697,3.226-1.76,3.706-3.138c0.293-0.741,0.442-1.487,0.442-2.218
		c0-1.894-0.99-3.319-2.936-4.234C59.478,0.396,57.341,0,54.713,0c-3.638,0-6.934,0.624-9.796,1.854
		c-1.391,0.6-2.665,1.396-3.789,2.366c-1.566,1.367-2.361,2.863-2.361,4.446c0,1.675,0.805,2.741,2.329,3.085l0.11,0.012
		c0.166,0,0.606,0,0.718-0.406l0.039-0.371l-0.257-0.206c-0.36-0.288-0.511-0.46-0.575-0.545c-0.244-0.31-0.362-0.699-0.362-1.192
		c0-0.737,0.557-1.685,1.657-2.813c1.148-1.18,2.377-2.081,3.655-2.681c2.551-1.215,5.477-1.831,8.695-1.831
		c2.012,0,3.607,0.298,4.745,0.888c1.226,0.622,1.822,1.53,1.822,2.775c0,0.525-0.117,1.135-0.347,1.807
		c-0.349,0.99-1.154,1.722-2.46,2.234c-1.064,0.413-2.266,0.623-3.571,0.623c-0.305,0-0.664-0.019-1.077-0.055
		C53.74,9.936,53.61,9.89,53.494,9.85c-0.12-0.039-0.285-0.1-0.494-0.18c-0.386-0.147-0.808-0.197-1.187-0.128
		c0.419-0.424,0.914-0.914,1.484-1.472c2.002-1.959,2.949-2.711,3.396-2.989c1.118-0.158,1.242-0.844,1.242-1.139
		s-0.107-0.717-0.624-1.05c-0.661-0.421-1.679-0.427-2.59-0.073c-0.739,0.289-2.263,1.376-6.943,7.459l-2.783,3.757
		c-0.725,0.985-1.347,1.788-1.856,2.396l-0.672-2.153c-0.383-1.231-1.006-1.855-1.853-1.855c-0.224,0-0.511,0.06-0.916,0.196
		c-0.799,0.341-1.665,1.341-2.647,3.06c-0.969,1.702-1.439,3.114-1.439,4.315c0,1.301,0.405,2.176,1.211,2.604
		c0.999,0.513,2.578-0.217,5.125-2.283C43.283,22.387,45.586,23.436,48.804,23.436z M39.708,15.019
		c0.221,0.286,0.681,1.123,1.422,3.562c-2.085,2.054-2.901,2.395-3.174,2.44c-0.188-0.357-0.282-0.754-0.282-1.18
		C37.673,18.65,38.357,17.029,39.708,15.019z M57.059,15.209c0,0.666-0.144,1.253-0.441,1.8c-0.705,1.332-1.794,2.475-3.235,3.395
		c-1.431,0.912-2.888,1.374-4.329,1.374c-2.244,0-3.915-1.039-5.097-3.173c1.921-1.757,4.024-4.22,6.253-7.327
		c0.076-0.104,0.195-0.247,0.355-0.428c0.111,0.746,1.288,0.894,1.804,0.958c0.912,0.114,1.575,0.203,1.897,0.241
		c0.813,0.286,1.494,0.738,2.025,1.343C56.808,13.982,57.059,14.577,57.059,15.209z"/>
	<path fill="#FF911E" d="M60.246,23.784c-0.879-0.286-1.919-0.431-3.093-0.431c-2.187,0-4.525,0.524-6.95,1.558
		c-2.43,1.034-4.558,2.5-6.325,4.355c-2.451,2.577-3.987,5.279-4.566,8.032c-0.172,0.815-0.26,1.598-0.26,2.325
		c0,1.673,0.465,3.133,1.379,4.335c1.364,1.838,3.45,2.77,6.201,2.77c2.664,0,5.346-0.705,7.968-2.094
		c2.118-1.099,3.772-2.269,4.908-3.467c0.325-0.325,0.49-0.671,0.49-1.029c0-0.653-0.432-0.827-0.687-0.827
		c-0.35,0-0.707,0.226-1.154,0.729c-1.124,1.245-2.476,2.283-4.012,3.083c-2.027,1.021-4.118,1.54-6.214,1.54
		c-1.795,0-3.311-0.484-4.504-1.439c-1.178-0.94-1.75-2.251-1.75-4.007c0-2.271,1-4.689,2.972-7.184
		c2.001-2.53,4.262-4.415,6.725-5.604c1.982-0.981,3.98-1.479,5.938-1.479c1.308,0,2.347,0.264,3.105,0.796
		c0.855,0.553,1.271,1.387,1.271,2.551c0,1.218-0.417,2.265-1.272,3.198c-1.705,1.844-3.527,2.778-5.417,2.778
		c-0.836,0-1.505-0.197-2.045-0.603c-0.497-0.373-0.738-0.81-0.738-1.335c0-0.783,0.507-1.594,1.507-2.412
		c0.645-0.271,0.744-0.701,0.744-0.938c0-0.481-0.555-1.001-1.554-0.237c-1.561,1.199-2.352,2.448-2.352,3.713
		c0,1.052,0.506,1.923,1.502,2.588c0.936,0.629,2.092,0.947,3.437,0.947c2.792,0,5.226-1.252,7.235-3.723
		c0.841-1.047,1.268-2.3,1.268-3.727C63.999,26.164,62.734,24.561,60.246,23.784z"/>
</g>
</svg>
