<?xml version="1.0" encoding="utf-8"?>
<!-- Generator: Adobe Illustrator 16.0.0, SVG Export Plug-In . SVG Version: 6.00 Build 0)  -->
<!DOCTYPE svg PUBLIC "-//W3C//DTD SVG 1.1//EN" "http://www.w3.org/Graphics/SVG/1.1/DTD/svg11.dtd">
<svg version="1.1" id="圖層_1" xmlns="http://www.w3.org/2000/svg" xmlns:xlink="http://www.w3.org/1999/xlink" x="0px" y="0px"
	 width="61.238px" height="43.674px" viewBox="0 0 61.238 43.674" enable-background="new 0 0 61.238 43.674" xml:space="preserve">
<g>
	<circle fill="#FF0000" cx="7.793" cy="35.882" r="7.793"/>
	<circle fill="#FFFFFF" cx="7.792" cy="35.882" r="5.562"/>
	<circle fill="#FF0000" cx="49.016" cy="35.882" r="7.791"/>
	<circle fill="#FFFFFF" cx="49.016" cy="35.882" r="5.561"/>
	<path fill="#FF0000" d="M19.48,5.319c0,0-1.223,0.015-2.164,0.862c0,0-1.316-0.168-1.883,1.633c0,0-0.6,3.33,0.824,3.456
		c0,0,0.297,0.163,0.988,0.204l0.842,1.211h-1.844c0,0-4.775,3.785-6.828,9.4c0,0-0.303,1.054-0.287,2.325
		c0,0,1.131,0.214,1.648,0.464c0,0-4.289-0.003-6.803,1.897c0,0-1.838,1.241-2.922,3.378c0,0,3.598-2.656,8.625-2.123
		c0,0,0.557,0.143,1.352,0.523c0.1,0.049-4.123,7.703-4.043,7.793c0.453,0.504,1.012,0.458,1.104,0.507
		c0.104,0.061,3.971-7.729,4.08-7.664c1.088,0.659,2.115,1.545,3.037,3.113c0,0,1.32,3.771,2.922,6.819c0,0,0.473,0.566,1.824,0.566
		h12.881c0,0,1.068-1.807,1.947-0.426c0,0,3.678,0.558,8.045,0.651c0,0-0.346-0.76-0.6-1.909l8.029,0.256c0,0,1.574-1.725,0.1-3.594
		l-8.209-0.736c0.299-1.342,1.004-2.68,2.418-3.744c0,0,0.881-0.461,11.479-3.057l3.855,7.079l1.34-0.88l-3.143-6.704
		c0,0,0.586-0.208,1.047-0.417c0,0-0.449-4.231-4.121-5.405c0,0,1.607-0.587,2.822-3.352c0,0-0.082-0.627-1.047-0.042
		c0,0-0.586,0.545-0.838,0.754c0,0-0.125-2.011-1.885-2.387c0,0-4.986-0.294-13.783,1.465c0,0-3.352,0.336-6.996,0.084
		c0,0-3.184-0.377-4.063,2.765c0,0-0.42,1.713-0.545,2.574c0,0,0.711,0.316,2.012,0.611c0,0,0.375,1.507,1.297,2.681
		c0,0-0.965,2.849-3.143,5.738l-7.75,0.252c0,0-0.461-0.04-0.963-1.382c0,0-0.963-4.105-0.293-8.631c0,0,1.592-6.912,3.352-10.599
		c0,0,0.711-0.503,0.607-1.361l0.754,0.251c0,0,0.482,0.294,0.943-0.146c0,0,0.334-0.879-0.691-0.859L24.205,9.05
		c0,0,0.229-1.027-0.629-1.53l-2.305-1.403l0.063-1.174l1.385-1.507l1.506-0.42c0,0,0.107,0.859,0.691,0.943
		c0,0,0.691-0.084,0.713-1.551c0,0,0.189-2.22-0.922-2.408c0,0-0.586,0.335-0.65,0.964c0,0-0.063,0.838,0,1.591
		c0,0-0.773,0.126-1.506,0.398c0,0-0.84,0.755-1.697,1.97c0,0-0.021,0.398-0.021,0.732c0,0-0.295-0.178-0.672-0.336L18.854,4.2
		c0,0,0.029-0.136,1.244-0.314c0,0,0.305,0.482,0.66,0.817c0,0,0.137-1.215,0.031-2.326c0,0-0.115-0.7-0.545-1.067
		c0,0-0.113,0.126-0.135,0.701l0.01,1.33c0,0-0.313,0.188-0.533,0.314c0,0-0.65,0.146-1.258,0.335c0,0-0.084,0.127,0.23,0.43
		L19.48,5.319z"/>
</g>
</svg>
