<?xml version="1.0" encoding="utf-8"?>
<!-- Generator: Adobe Illustrator 16.0.0, SVG Export Plug-In . SVG Version: 6.00 Build 0)  -->
<!DOCTYPE svg PUBLIC "-//W3C//DTD SVG 1.1//EN" "http://www.w3.org/Graphics/SVG/1.1/DTD/svg11.dtd">
<svg version="1.1" id="圖層_1" xmlns="http://www.w3.org/2000/svg" xmlns:xlink="http://www.w3.org/1999/xlink" x="0px" y="0px"
	 width="30.439px" height="30.44px" viewBox="0 0 30.439 30.44" enable-background="new 0 0 30.439 30.44" xml:space="preserve">
<g>
	<g>
		<path d="M13.812,25.251c-7.75-0.576-13.813-5.844-13.813-12.256c0-6.797,6.816-12.311,15.217-12.311
			c8.416,0,15.225,5.51,15.225,12.311c0,0-0.031,3.813-2.203,6.247c0,0-3.104,4.666-13.744,10.451c0,0-1.113,0.473-0.734-1.184
			c0,0,0.436-0.992,0.582-2.604c0,0,0.039-0.432-0.396-0.637L13.812,25.251z"/>
	</g>
	<g>
		<path fill="#FFFFFF" d="M8.218,17.353H4.524c-0.465,0-0.84-0.371-0.84-0.839V9.213c0-0.456,0.375-0.84,0.84-0.84
			c0.455,0,0.826,0.384,0.826,0.84v6.473h2.867c0.443,0,0.848,0.369,0.848,0.828C9.065,16.982,8.661,17.353,8.218,17.353z"/>
	</g>
	<g>
		<path fill="#FFFFFF" d="M10.788,17.353c-0.447,0-0.832-0.371-0.832-0.839V9.213c0-0.456,0.385-0.84,0.832-0.84
			c0.461,0,0.832,0.384,0.832,0.84v7.301C11.62,16.982,11.249,17.353,10.788,17.353z"/>
	</g>
	<g>
		<path fill="#FFFFFF" d="M19.302,17.353c-0.271,0-0.518-0.125-0.68-0.344l-3.797-5.221v4.726c0,0.468-0.371,0.839-0.832,0.839
			c-0.469,0-0.852-0.371-0.852-0.839V9.213c0-0.359,0.238-0.679,0.58-0.787c0.344-0.121,0.732,0.013,0.938,0.303l3.799,5.203
			l-0.021-4.719c0-0.456,0.371-0.84,0.844-0.84l0,0c0.461,0,0.832,0.384,0.832,0.84l0.02,7.301c0,0.367-0.23,0.685-0.576,0.798
			C19.474,17.341,19.386,17.353,19.302,17.353z"/>
	</g>
	<path fill="#FFFFFF" d="M26.118,13.71c0.461,0,0.832-0.38,0.832-0.84c0-0.465-0.371-0.844-0.832-0.844h-2.902v-1.97h2.902
		c0.461,0,0.832-0.384,0.832-0.844c0-0.456-0.371-0.84-0.832-0.84h-3.734c-0.463,0-0.842,0.384-0.842,0.84v7.301
		c0,0.468,0.379,0.839,0.842,0.839h3.734c0.461,0,0.832-0.371,0.832-0.839c0-0.459-0.371-0.828-0.832-0.828h-2.902V13.71H26.118z"/>
</g>
</svg>
