<?xml version="1.0" encoding="utf-8"?>
<!-- Generator: Adobe Illustrator 16.0.0, SVG Export Plug-In . SVG Version: 6.00 Build 0)  -->
<!DOCTYPE svg PUBLIC "-//W3C//DTD SVG 1.1//EN" "http://www.w3.org/Graphics/SVG/1.1/DTD/svg11.dtd">
<svg version="1.1" id="圖層_1" xmlns="http://www.w3.org/2000/svg" xmlns:xlink="http://www.w3.org/1999/xlink" x="0px" y="0px"
	 width="30.439px" height="30.44px" viewBox="0 0 30.439 30.44" enable-background="new 0 0 30.439 30.44" xml:space="preserve">
<path d="M5.378,0.31c0,0,2.277-0.762,2.976,0.846l2.098,5.504c0,0,0.718,1.521-0.179,2.246l-2.039,1.219c0,0-0.578,0.32-0.615,0.863
	c0,0-0.102,0.543-0.023,1.363c0,0,1.027,3.06,4.44,6.375c0,0,2.354,2.564,5.924,4.141c0,0,0.722,0.066,1.439,0
	c0,0,0.573-0.061,0.89-0.844c0,0,0.437-0.918,0.992-1.703c0,0,0.539-1.039,2.241-0.416l5.021,1.943c0,0,2.139,0.52,1.447,2.861
	c0,0-0.516,3.084-3.175,4.568c0,0-2.259,1.6-5.576,0.822c0,0-1.643-0.344-3.489-1.262c0,0-8.547-4.184-15.312-14.812
	c0,0-3.118-4.752-1.8-9.242C0.638,4.782,1.522,1.553,5.378,0.31z"/>
</svg>
